<?xml version="1.0" encoding="UTF-8" standalone="no"?>
<!-- Created with Inkscape (http://www.inkscape.org/) -->

<svg
   xmlns:dc="http://purl.org/dc/elements/1.1/"
   xmlns:cc="http://creativecommons.org/ns#"
   xmlns:rdf="http://www.w3.org/1999/02/22-rdf-syntax-ns#"
   xmlns:svg="http://www.w3.org/2000/svg"
   xmlns="http://www.w3.org/2000/svg"
   xmlns:sodipodi="http://sodipodi.sourceforge.net/DTD/sodipodi-0.dtd"
   xmlns:inkscape="http://www.inkscape.org/namespaces/inkscape"
   width="210mm"
   height="297mm"
   viewBox="0 0 210 297"
   version="1.1"
   id="svg8"
   inkscape:version="0.92.4 (5da689c313, 2019-01-14)"
   sodipodi:docname="desfault.svg">
  <defs
     id="defs2">
    <inkscape:perspective
       sodipodi:type="inkscape:persp3d"
       inkscape:vp_x="0 : 148.5 : 1"
       inkscape:vp_y="0 : 1000 : 0"
       inkscape:vp_z="210 : 148.5 : 1"
       inkscape:persp3d-origin="105 : 99 : 1"
       id="perspective87" />
  </defs>
  <sodipodi:namedview
     id="base"
     pagecolor="#ffffff"
     bordercolor="#666666"
     borderopacity="1.0"
     inkscape:pageopacity="0.0"
     inkscape:pageshadow="2"
     inkscape:zoom="0.7"
     inkscape:cx="139.89006"
     inkscape:cy="524.7402"
     inkscape:document-units="mm"
     inkscape:current-layer="layer1"
     showgrid="false"
     inkscape:window-width="1920"
     inkscape:window-height="1057"
     inkscape:window-x="-8"
     inkscape:window-y="-8"
     inkscape:window-maximized="1" />
  <metadata
     id="metadata5">
    <rdf:RDF>
      <cc:Work
         rdf:about="">
        <dc:format>image/svg+xml</dc:format>
        <dc:type
           rdf:resource="http://purl.org/dc/dcmitype/StillImage" />
        <dc:title></dc:title>
      </cc:Work>
    </rdf:RDF>
  </metadata>
  <g
     inkscape:label="Capa 1"
     inkscape:groupmode="layer"
     id="layer1">
    <path
       style="fill:none;stroke:#000000;stroke-width:0.26458332px;stroke-linecap:butt;stroke-linejoin:miter;stroke-opacity:1"
       d="m 48.758927,264.49404 c 9.251094,5.4998 13.400965,-5.49332 23.607017,-2.58707 13.38018,3.81012 15.236426,-4.35826 18.919565,-0.87823 5.914277,5.58813 10.226541,4.97253 13.429481,2.03221 4.48262,-4.11507 13.85359,3.08054 19.78094,1.63735 6.78317,-1.65156 12.77153,3.36869 19.36405,0.75037 4.49104,-1.78368 9.57404,3.07655 15.24383,3.77677 4.11301,0.50797 9.07201,-2.60579 11.74143,-5.10937 10.50439,-87.60655 11.64999,-105.38563 1.51191,-159.88393 -1.16059,-4.989833 -2.39517,-9.785547 -3.69778,-14.386306 C 164.93093,76.677108 159.88923,69.263351 155.1861,59.30875 128.53356,2.8962396 85.862717,-6.1086053 57.834737,44.892285 50.159102,58.859194 45.833223,70.067299 43.467262,97.806541 29.113884,128.80233 24.604997,189.16314 48.758927,264.49404 Z"
       id="path133"
       inkscape:connector-curvature="0"
       sodipodi:nodetypes="cssssssccssscc" />
    <ellipse
       style="fill:#000000;fill-opacity:1;stroke-width:0.26458332"
       id="path135"
       cx="86.367554"
       cy="97.239578"
       rx="13.79613"
       ry="25.513393" />
    <ellipse
       style="fill:#000000;fill-opacity:1;stroke-width:0.26458332"
       id="path137"
       cx="131.15775"
       cy="100.0744"
       rx="13.985119"
       ry="25.702381" />
    <path
       style="fill:#000000;stroke:#000000;stroke-width:0.26458332px;stroke-linecap:butt;stroke-linejoin:miter;stroke-opacity:1"
       d="m 79.374998,146.1875 64.255952,-0.37798 c -37.69527,49.6957 -47.249355,13.68869 -64.255952,0.37798 z"
       id="path139"
       inkscape:connector-curvature="0"
       sodipodi:nodetypes="ccc" />
    <path
       style="fill:none;stroke:#000000;stroke-width:0.26458332px;stroke-linecap:butt;stroke-linejoin:miter;stroke-opacity:1"
       d="M 58.58631,223.67262 C 19.593952,161.68524 1.6903694,130.98505 67.657738,183.22917"
       id="path143"
       inkscape:connector-curvature="0"
       sodipodi:nodetypes="cc" />
    <path
       style="fill:none;stroke:#000000;stroke-width:0.26458332px;stroke-linecap:butt;stroke-linejoin:miter;stroke-opacity:1"
       d="m 156.48213,213.46725 c 63.22086,-73.04521 61.09194,-98.41701 -3.77976,-42.33333"
       id="path145"
       inkscape:connector-curvature="0"
       sodipodi:nodetypes="cc" />
  </g>
</svg>
